<?xml version="1.0" encoding="iso-8859-1"?>
<!-- Uploaded to: SVG Repo, www.svgrepo.com, Generator: SVG Repo Mixer Tools -->
<svg version="1.1" id="Layer_1" xmlns="http://www.w3.org/2000/svg" xmlns:xlink="http://www.w3.org/1999/xlink" 
	 viewBox="0 0 512 512" xml:space="preserve">
<path style="fill:#FFD77A;" d="M302.669,241.936c0,0-1.55,70.514-14.723,125.53c-6.974,26.346,0,63.448,0,63.448h-63.892
	c0,0,6.974-37.102,0-63.448c-13.173-55.016-14.723-125.53-14.723-125.53L302.669,241.936L302.669,241.936z"/>
<path style="opacity:0.1;enable-background:new    ;" d="M258.14,367.467c-13.173-55.016-14.723-125.53-14.723-125.53h-34.086
	c0,0,1.55,70.514,14.723,125.53c6.974,26.346,0,63.448,0,63.448h34.086C258.14,430.916,265.114,393.814,258.14,367.467z"/>
<path style="fill:#CCAC62;" d="M96.074,41.002v70.906c0,88.325,71.601,159.925,159.925,159.925l0,0
	c88.325,0,159.925-71.601,159.925-159.925V41.002H96.074z"/>
<path style="opacity:0.1;enable-background:new    ;" d="M152.884,111.908V41.002H96.074v70.906
	c0,88.325,71.601,159.925,159.926,159.925l0,0c9.694,0,19.186-0.863,28.405-2.516C209.632,255.914,152.884,190.539,152.884,111.908z
	"/>
<rect x="69.467" y="8.521" style="fill:#FFD77A;" width="373.078" height="65.688"/>
<rect x="69.467" y="8.521" style="opacity:0.1;enable-background:new    ;" width="56.809" height="65.688"/>
<g>
	<path style="fill:#CCAC62;" d="M291.478,322.868h-70.955c-12.062,0-21.839,9.778-21.839,21.839
		c0,12.061,9.778,21.839,21.839,21.839h70.954c12.062,0,21.839-9.778,21.839-21.839
		C313.317,332.645,303.539,322.868,291.478,322.868z"/>
	<path style="fill:#CCAC62;" d="M304.275,416.569h-96.549c-35.843,0-64.9,29.057-64.9,64.9h226.349
		C369.175,445.626,340.118,416.569,304.275,416.569z"/>
</g>
<path style="opacity:0.1;enable-background:new    ;" d="M253.174,416.569h-45.447c-35.843,0-64.9,29.057-64.9,64.9h45.447
	C188.274,445.626,217.33,416.569,253.174,416.569z"/>
<path style="fill:#FFD77A;" d="M374.922,468.389H137.079c-9.689,0-17.545,7.856-17.545,17.545s7.856,17.545,17.545,17.545h237.841
	c9.689,0,17.545-7.856,17.545-17.545S384.611,468.389,374.922,468.389z"/>
<path style="opacity:0.1;enable-background:new    ;" d="M164.982,485.934c0-9.689,7.856-17.545,17.545-17.545h-45.447
	c-9.689,0-17.545,7.856-17.545,17.545s7.856,17.545,17.545,17.545h45.447C172.837,503.479,164.982,495.624,164.982,485.934z"/>
<path d="M256.001,222.42c4.706,0,8.521-3.815,8.521-8.521v-58.116h23.425c4.706,0,8.521-3.815,8.521-8.521
	c0-4.707-3.815-8.521-8.521-8.521h-23.425v-21.491c0-4.706-3.815-8.521-8.521-8.521s-8.521,3.815-8.521,8.521v21.491h-23.425
	c-4.706,0-8.521,3.814-8.521,8.521c0,4.706,3.815,8.521,8.521,8.521h23.425v58.116C247.479,218.605,251.294,222.42,256.001,222.42z"
	/>
<path d="M69.464,82.73h18.09v29.177c0,74.102,48.098,137.179,114.714,159.658c0.84,12.373,2.219,28.735,4.416,46.133
	c-9.798,5.042-16.52,15.251-16.52,27.008c0,15.537,11.735,28.377,26.805,30.144c1.985,10.753,1.929,22.904,1.23,33.197h-10.472
	c-32.357,0-60.819,21.414-70.178,51.819h-0.469c-14.373,0-26.066,11.694-26.066,26.066S122.708,512,137.08,512h237.841
	c14.373,0,26.066-11.694,26.066-26.066s-11.694-26.066-26.066-26.066h-0.469c-9.359-30.405-37.82-51.819-70.178-51.819h-10.472
	c-0.7-10.294-0.754-22.445,1.23-33.197c15.07-1.767,26.805-14.607,26.805-30.144c0-11.757-6.722-21.967-16.52-27.008
	c2.197-17.402,3.578-33.764,4.416-46.134c10.816-3.634,21.269-8.357,31.167-14.146c24.892-14.557,45.775-35.391,60.393-60.253
	c2.386-4.056,1.031-9.279-3.027-11.665c-4.06-2.386-9.279-1.029-11.665,3.027c-13.145,22.356-31.923,41.09-54.305,54.179
	c-22.895,13.389-49.772,20.606-76.297,20.606c-29.174,0-58.059-8.569-82.489-24.502c-20.971-13.676-38.447-32.543-50.459-54.512
	c-12.098-22.128-18.456-47.176-18.456-72.391V82.73h302.809v29.177c0,15.254-2.262,30.311-6.724,44.752
	c-1.39,4.497,1.129,9.268,5.626,10.657c4.497,1.388,9.268-1.131,10.657-5.626c4.965-16.072,7.483-32.821,7.483-49.783V82.73h18.09
	c4.706,0,8.521-3.815,8.521-8.521V8.521c0-4.706-3.815-8.521-8.521-8.521H155.001c-4.706,0-8.521,3.815-8.521,8.521
	s3.815,8.521,8.521,8.521h279.013v48.645h-18.09H96.075h-18.09V17.043h42.933c4.706,0,8.521-3.815,8.521-8.521S125.624,0,120.918,0
	H69.464c-4.706,0-8.521,3.815-8.521,8.521v65.688C60.942,78.916,64.758,82.73,69.464,82.73z M304.275,425.091
	c23.034,0,43.503,14.123,52.092,34.776h-37.676c-4.706,0-8.521,3.815-8.521,8.521s3.815,8.521,8.521,8.521h49.165h7.066
	c4.975,0,9.024,4.048,9.024,9.024s-4.048,9.024-9.024,9.024H137.079c-4.975,0-9.024-4.048-9.024-9.024s4.048-9.024,9.024-9.024
	h7.066h140.46c4.706,0,8.521-3.815,8.521-8.521s-3.815-8.521-8.521-8.521H155.634c8.59-20.655,29.058-34.776,52.092-34.776h18.294
	h59.961H304.275z M276.726,408.048h-41.45c0.631-10.14,0.658-21.905-0.996-32.981h43.443
	C276.069,386.142,276.096,397.906,276.726,408.048z M221.036,276.709c11.477,2.434,23.235,3.645,34.965,3.645
	c11.106,0,22.218-1.107,33.11-3.279c0.112-0.023,0.224-0.047,0.335-0.069c0.953-0.192,1.907-0.378,2.856-0.587
	c-0.814,10.866-2.009,24.039-3.737,37.926h-65.129c-1.728-13.882-2.923-27.057-3.737-37.926
	C220.145,276.518,220.59,276.615,221.036,276.709z M217.78,331.676c0.91-0.19,1.833-0.286,2.744-0.286h70.955
	c0.91,0,1.834,0.097,2.744,0.286c6.031,1.269,10.573,6.627,10.573,13.031c0,7.343-5.974,13.317-13.317,13.317h-3.315H223.84h-3.315
	c-7.343,0-13.317-5.974-13.317-13.317C207.206,338.303,211.749,332.945,217.78,331.676z"/>
</svg>